:SAMPLES-PER-SECOND 30
:FRAME-RANGE 1-744
:FULLY-SPECIFIED
:DEGREES
94
root  -35.9407 39.3902 -144.808 -165.353 68.7675 -173.148
RightUpLeg  -9.75725 -8.36444 0.279494
RightLeg  15.65 -0.262184 -0.104223
RightFoot  -13.3463 0.0489215 7.96771
RightToes  -5.28216e-011 1.2921e-014 -6.02303e-014
Spine  -5.1619 0.750853 -0.649979
Spine1  10.506 2.03925 -4.4356
HEad  36.0079 2.89732 1.39217
LeftShoulder1  1.00933 -0.709906 -18.8383
LeftArm  -1.99273 -0.947822 -49.8265
LeftForeArm  31.4572 0.550566 -12.3743
LeftHand  -0.0267304 5.46086 1.80279
RightShoulder  1.71418 2.13272 25.4635
RightArm  -22.1257 -5.12697 54.8486
RightForeArm  69.1751 -1.8732 6.21319
RightHand  0.25075 -7.34384 -15.976
LeftUpLeg  -17.4877 -1.74157 5.15496
LeftLeg  15.019 -6.70519 -0.345094
LeftFoot  -4.30273 0.250565 -3.65388
LeftToes  -9.4837e-011 -7.11147e-011 -1.07582e-011
95
root  -35.9739 39.5085 -145.162 -165.96 70.2254 -173.905
RightUpLeg  -8.27841 -5.81175 -0.398171
RightLeg  12.3173 -5.49245 -0.75512
RightFoot  -12.6471 9.85692e-006 7.53383
RightToes  -5.28216e-011 1.2921e-014 -6.02303e-014
Spine  -5.50165 0.881249 -0.101054
Spine1  10.1377 2.27311 -4.88743
HEad  36.0502 3.42941 0.85285
LeftShoulder1  0.953191 -0.456703 -19.0519
LeftArm  -1.47243 -1.43236 -49.4485
LeftForeArm  31.9668 0.702889 -12.5491
LeftHand  -0.0272614 5.47827 1.66931
RightShoulder  1.76514 2.36525 25.0573
RightArm  -21.9671 -5.26013 55.0593
RightForeArm  67.4885 -1.10113 6.44866
RightHand  0.175582 -6.7554 -16.334
LeftUpLeg  -16.3067 0.338963 3.9518
LeftLeg  13.2045 -7.27336 -0.45681
LeftFoot  -3.58866 0.2235 -2.98033
LeftToes  -9.4837e-011 -7.11147e-011 -1.07582e-011
96
root  -36.056 39.5639 -145.448 -166.14 71.9203 -174.352
RightUpLeg  -7.69993 -5.4062 -0.835975
RightLeg  10.7215 -9.10299 -1.01741
RightFoot  -13.6459 0.0641096 7.78641
RightToes  -5.28216e-011 1.2921e-014 -6.02303e-014
Spine  -5.74994 0.872828 0.0797424
Spine1  9.77896 2.27438 -5.044
HEad  35.208 3.0008 0.771563
LeftShoulder1  0.918076 -0.303454 -19.1619
LeftArm  -1.52469 -1.41298 -49.2886
LeftForeArm  32.3195 0.764787 -12.5318
LeftHand  -0.0241237 5.4434 1.93424
RightShoulder  1.65777 1.95444 25.4528
RightArm  -21.9775 -4.18593 54.7105
RightForeArm  66.08 -1.35893 6.29571
RightHand  0.15004 -6.52586 -16.9027
LeftUpLeg  -15.7902 1.57815 3.11325
LeftLeg  12.2058 -6.8097 -0.492213
LeftFoot  -3.16761 0.194671 -2.45821
LeftToes  -9.4837e-011 -7.11147e-011 -1.07582e-011
97
root  -36.1929 39.606 -145.67 -165.056 73.7643 -173.434
RightUpLeg  -7.87589 -6.03776 -1.02035
RightLeg  10.93 -9.14262 -1.00262
RightFoot  -14.0953 0.0432046 5.77259
RightToes  -5.28216e-011 1.2921e-014 -6.02303e-014
Spine  -5.47281 0.820757 0.419175
Spine1  9.15436 2.13854 -4.95858
HEad  33.9615 2.78445 0.498184
LeftShoulder1  0.939213 -0.387774 -19.1532
LeftArm  -1.81924 -1.03151 -49.2601
LeftForeArm  32.6525 0.759321 -12.4272
LeftHand  -0.0243636 5.46664 1.96474
RightShoulder  1.6647 2.04854 25.0096
RightArm  -23.1816 -3.57298 55.1126
RightForeArm  65.9698 -1.0183 5.71183
RightHand  0.0795453 -6.03334 -16.9558
LeftUpLeg  -15.5948 2.16816 2.81829
LeftLeg  11.6997 -5.51034 -0.318344
LeftFoot  -2.95252 0.178066 -2.18612
LeftToes  -9.4837e-011 -7.11147e-011 -1.07582e-011
